<svg width="32" height="32" viewBox="0 0 32 32" fill="none" xmlns="http://www.w3.org/2000/svg">
<path d="M18.6669 28.0001H13.3335M24.0002 10.6667C24.0002 8.54502 23.1573 6.51018 21.657 5.00989C20.1568 3.5096 18.1219 2.66675 16.0002 2.66675C13.8785 2.66675 11.8436 3.5096 10.3433 5.00989C8.84304 6.51018 8.00019 8.54502 8.00019 10.6667C8.00019 14.787 6.96081 17.608 5.79974 19.474C4.82036 21.0479 4.33067 21.8349 4.34862 22.0544C4.3685 22.2975 4.42 22.3902 4.61589 22.5355C4.7928 22.6667 5.59031 22.6667 7.18533 22.6667H24.815C26.4101 22.6667 27.2076 22.6667 27.3845 22.5355C27.5804 22.3902 27.6319 22.2975 27.6518 22.0544C27.6697 21.8349 27.18 21.0479 26.2006 19.474C25.0396 17.608 24.0002 14.787 24.0002 10.6667Z" stroke="black" stroke-width="3" stroke-linecap="round" stroke-linejoin="round"/>
</svg>
