<svg width="32" height="32" viewBox="0 0 32 32" fill="none" xmlns="http://www.w3.org/2000/svg">
<path d="M11.3334 19.5556C11.3334 21.2739 12.7263 22.6667 14.4445 22.6667H17.3334C19.1744 22.6667 20.6667 21.1744 20.6667 19.3334C20.6667 17.4925 19.1744 16.0001 17.3334 16.0001H14.6667C12.8258 16.0001 11.3334 14.5077 11.3334 12.6667C11.3334 10.8258 12.8258 9.33341 14.6667 9.33341H17.5556C19.2739 9.33341 20.6667 10.7263 20.6667 12.4445M16.0001 7.33341V9.33341M16.0001 22.6667V24.6667M29.3334 16.0001C29.3334 23.3639 23.3639 29.3334 16.0001 29.3334C8.63628 29.3334 2.66675 23.3639 2.66675 16.0001C2.66675 8.63628 8.63628 2.66675 16.0001 2.66675C23.3639 2.66675 29.3334 8.63628 29.3334 16.0001Z" stroke="white" stroke-width="2" stroke-linecap="round" stroke-linejoin="round"/>
</svg>
