<svg width="51" height="23" viewBox="0 0 51 23" fill="none" xmlns="http://www.w3.org/2000/svg">
<path fill-rule="evenodd" clip-rule="evenodd" d="M0 2C0 0.89543 0.895431 0 2 0H42.3157H42.7368C42.871 0 43.002 0.0132048 43.1288 0.0383853C47.4418 0.447693 50.8157 4.07984 50.8157 8.5C50.8157 12.9202 47.4418 16.5523 43.1288 16.9616C43.002 16.9868 42.871 17 42.7368 17H42.3157H1.97368V20H0V17V2Z" fill="#F04438"/>
<path d="M3 17C2.60603 17 2.21593 17.0776 1.85195 17.2284C1.48797 17.3791 1.15726 17.6001 0.87868 17.8787C0.600104 18.1573 0.379125 18.488 0.228361 18.8519C0.0775973 19.2159 -1.25228e-08 19.606 0 20C1.25228e-08 20.394 0.0775973 20.7841 0.228361 21.1481C0.379126 21.512 0.600104 21.8427 0.87868 22.1213C1.15726 22.3999 1.48797 22.6209 1.85195 22.7716C2.21593 22.9224 2.60603 23 3 23L3 20V17Z" fill="#AB322A"/>
</svg>
