<svg width="24" height="25" viewBox="0 0 24 25" fill="none" xmlns="http://www.w3.org/2000/svg">
<path d="M18 10.5001L14 6.50006M2.5 22.0001L5.88437 21.624C6.29786 21.5781 6.5046 21.5551 6.69785 21.4925C6.86929 21.437 7.03245 21.3586 7.18289 21.2594C7.35245 21.1476 7.49955 21.0005 7.79373 20.7063L21 7.50006C22.1046 6.39549 22.1046 4.60463 21 3.50006C19.8955 2.39549 18.1046 2.39549 17 3.50006L3.79373 16.7063C3.49955 17.0005 3.35246 17.1476 3.24064 17.3172C3.14143 17.4676 3.06301 17.6308 3.00751 17.8022C2.94496 17.9955 2.92198 18.2022 2.87604 18.6157L2.5 22.0001Z" stroke="#1C1C1C" stroke-width="2" stroke-linecap="round" stroke-linejoin="round"/>
</svg>
