<svg width="32" height="32" viewBox="0 0 32 32" fill="none" xmlns="http://www.w3.org/2000/svg">
<path d="M2.66675 16.0001H29.3334M2.66675 16.0001C2.66675 23.3639 8.63628 29.3334 16.0001 29.3334M2.66675 16.0001C2.66675 8.63628 8.63628 2.66675 16.0001 2.66675M29.3334 16.0001C29.3334 23.3639 23.3639 29.3334 16.0001 29.3334M29.3334 16.0001C29.3334 8.63628 23.3639 2.66675 16.0001 2.66675M16.0001 2.66675C19.3351 6.31789 21.2304 11.0561 21.3334 16.0001C21.2304 20.944 19.3351 25.6823 16.0001 29.3334M16.0001 2.66675C12.665 6.31789 10.7697 11.0561 10.6667 16.0001C10.7697 20.944 12.665 25.6823 16.0001 29.3334" stroke="white" stroke-width="2" stroke-linecap="round" stroke-linejoin="round"/>
</svg>
