<svg width="32" height="32" viewBox="0 0 32 32" fill="none" xmlns="http://www.w3.org/2000/svg">
<path d="M2.66675 2.66675H4.4083C4.73632 2.66675 4.90034 2.66675 5.03233 2.72707C5.14864 2.78023 5.24721 2.86571 5.31628 2.97334C5.39466 3.09547 5.41786 3.25784 5.46425 3.58257L6.09532 8.00008M6.09532 8.00008L7.49784 18.3086C7.67582 19.6168 7.76481 20.2709 8.07755 20.7632C8.35312 21.197 8.74819 21.542 9.21522 21.7566C9.74523 22.0001 10.4053 22.0001 11.7256 22.0001H23.1361C24.3928 22.0001 25.0212 22.0001 25.5347 21.774C25.9875 21.5746 26.3759 21.2532 26.6565 20.8457C26.9747 20.3836 27.0922 19.7663 27.3274 18.5318L29.0922 9.26633C29.175 8.83182 29.2164 8.61457 29.1564 8.44475C29.1038 8.29577 29 8.17033 28.8635 8.09077C28.7079 8.00008 28.4867 8.00008 28.0444 8.00008H6.09532ZM13.3334 28.0001C13.3334 28.7365 12.7365 29.3334 12.0001 29.3334C11.2637 29.3334 10.6667 28.7365 10.6667 28.0001C10.6667 27.2637 11.2637 26.6667 12.0001 26.6667C12.7365 26.6667 13.3334 27.2637 13.3334 28.0001ZM24.0001 28.0001C24.0001 28.7365 23.4031 29.3334 22.6667 29.3334C21.9304 29.3334 21.3334 28.7365 21.3334 28.0001C21.3334 27.2637 21.9304 26.6667 22.6667 26.6667C23.4031 26.6667 24.0001 27.2637 24.0001 28.0001Z" stroke="white" stroke-width="2" stroke-linecap="round" stroke-linejoin="round"/>
</svg>
