<svg color width="32" height="32" viewBox="0 0 32 32" fill="none" xmlns="http://www.w3.org/2000/svg">
<path d="M8.66669 22.6667H23.1056C24.3723 22.6667 25.0056 22.6667 25.5217 22.4379C25.9768 22.2362 26.3663 21.9111 26.6462 21.4995C26.9636 21.0326 27.0769 20.4095 27.3035 19.1633L29.1045 9.25756C29.1831 8.82565 29.2223 8.60969 29.1617 8.44107C29.1084 8.29313 29.0046 8.16876 28.8686 8.08993C28.7136 8.00008 28.4941 8.00008 28.0551 8.00008H6.66669M2.6665 2.66675H4.42171C4.7453 2.66675 4.90709 2.66675 5.03794 2.72585C5.15327 2.77795 5.25139 2.86179 5.32084 2.96759C5.39962 3.08762 5.42486 3.24743 5.47532 3.56705L9.19102 27.0998C9.24148 27.4194 9.26672 27.5792 9.34551 27.6992C9.41495 27.805 9.51307 27.8889 9.6284 27.941C9.75925 28.0001 9.92105 28.0001 10.2446 28.0001H25.3332" stroke="black" stroke-width="3" stroke-linecap="round" stroke-linejoin="round"/>
</svg>
